<?xml version="1.0" standalone="no"?>
<!DOCTYPE svg PUBLIC "-//W3C//DTD SVG 20010904//EN"
 "http://www.w3.org/TR/2001/REC-SVG-20010904/DTD/svg10.dtd">
<svg version="1.0" xmlns="http://www.w3.org/2000/svg"
 width="512.000000pt" height="512.000000pt" viewBox="0 0 512.000000 512.000000"
 preserveAspectRatio="xMidYMid meet">
<metadata>
Created by potrace 1.11, written by Peter Selinger 2001-2013
</metadata>
<g transform="translate(0.000000,512.000000) scale(0.100000,-0.100000)"
fill="#000000" stroke="none">
<path d="M715 3991 c-11 -5 -31 -21 -45 -36 l-25 -27 -3 -1301 c-3 -1458 -8
-1348 70 -1433 74 -80 -80 -75 1918 -72 1757 3 1775 3 1802 23 42 30 50 73 46
237 l-3 148 -33 32 -32 33 -1645 3 -1645 2 -2 1165 -3 1165 -33 32 -32 33
-158 2 c-86 1 -166 -1 -177 -6z"/>
<path d="M3165 3746 c-90 -41 -134 -147 -95 -233 10 -22 73 -96 149 -172 l131
-132 -275 -275 -274 -274 -295 293 c-278 278 -297 295 -351 312 -64 20 -124
16 -182 -12 -43 -20 -590 -565 -604 -601 -6 -14 -7 -44 -3 -65 5 -33 23 -56
112 -144 58 -58 117 -109 131 -114 14 -6 42 -7 64 -4 33 6 63 32 222 191 l185
184 285 -285 c168 -167 304 -294 328 -307 55 -29 155 -31 211 -4 23 12 186
167 412 393 l374 373 129 -129 c71 -71 144 -137 162 -146 92 -48 221 6 250
104 6 24 9 199 7 513 l-3 478 -33 32 -32 33 -488 2 c-393 2 -493 0 -517 -11z"/>
</g>
</svg>
