<?xml version="1.0" standalone="no"?>
<!DOCTYPE svg PUBLIC "-//W3C//DTD SVG 20010904//EN"
 "http://www.w3.org/TR/2001/REC-SVG-20010904/DTD/svg10.dtd">
<svg version="1.0" xmlns="http://www.w3.org/2000/svg"
 width="512.000000pt" height="512.000000pt" viewBox="0 0 512.000000 512.000000"
 preserveAspectRatio="xMidYMid meet">
<metadata>
Created by potrace 1.11, written by Peter Selinger 2001-2013
</metadata>
<g transform="translate(0.000000,512.000000) scale(0.100000,-0.100000)"
fill="#000000" stroke="none">
<path d="M106 4470 c-38 -12 -75 -47 -92 -87 -12 -27 -14 -314 -14 -1752 0
-1210 3 -1729 11 -1752 32 -98 88 -166 174 -209 l50 -25 2378 -3 c2628 -3
2419 -8 2473 64 l29 37 0 218 c0 239 -1 243 -69 293 l-27 21 -2190 3 -2189 2
-2 1549 c-3 1547 -3 1550 -24 1577 -50 67 -56 69 -277 71 -111 1 -215 -2 -231
-7z"/>
<path d="M3385 4148 c-77 -28 -137 -91 -156 -162 -14 -50 -6 -133 15 -175 9
-17 96 -110 192 -207 97 -96 174 -177 172 -179 -50 -58 -725 -724 -731 -722
-4 1 -180 174 -390 383 -435 434 -427 428 -567 428 -139 0 -133 4 -557 -418
-225 -224 -379 -385 -388 -407 -19 -41 -14 -109 11 -147 37 -56 274 -281 309
-292 40 -13 109 -7 134 12 9 7 123 119 253 248 l237 236 388 -386 c441 -440
434 -434 573 -434 69 0 94 4 135 24 39 19 159 133 548 519 273 273 499 498
501 499 3 2 83 -75 180 -172 96 -96 190 -183 208 -193 22 -12 56 -17 103 -18
81 0 124 17 179 72 68 68 67 57 64 766 -3 624 -3 636 -24 663 -11 15 -33 37
-48 48 -27 21 -38 21 -669 23 -446 1 -651 -2 -672 -9z"/>
</g>
</svg>
